# xmcd CD database file
#
# Track frame offsets:
#	150
#	17657
#	33002
#	48517
#	65777
#	80695
#	99167
#	115960
#	129362
#	143237
#
# Disc length: 2118 seconds
#
# Revision: 6
# Processed by: cddbd v1.5.2PL0 Copyright (c) Steve Scherf et al.
# Submitted via: CDex 1.51
#
DISCID=8008440a
DTITLE=Mark Chesnutt - Lost In The Feeling
DYEAR=2000
DGENRE=Country
TTITLE0=Fallin' Never Felt So Good
TTITLE1=Confessin' My Love
TTITLE2=Halfway Back To Birmingham
TTITLE3=Try Being Me
TTITLE4=Go Away
TTITLE5=It Pays Big Money
TTITLE6=Love In The Hot Afternoon
TTITLE7=Angelina
TTITLE8=Lost In The Feeling
TTITLE9=Somewhere Out There Tonight
EXTD=YEAR: 2000
EXTT0=
EXTT1=
EXTT2=
EXTT3=
EXTT4=
EXTT5=
EXTT6=
EXTT7=
EXTT8=
EXTT9=
PLAYORDER=
